<?xml version="1.0" encoding="UTF-8" standalone="no"?>
<!-- Created with Inkscape (http://www.inkscape.org/) -->

<svg
   version="1.1"
   id="svg1"
   width="1394.6245"
   height="489.06812"
   viewBox="0 0 1394.6246 489.06814"
   xml:space="preserve"
   xmlns="http://www.w3.org/2000/svg"
   xmlns:svg="http://www.w3.org/2000/svg"><defs
     id="defs1"><rect
       x="3896.4182"
       y="2881.3191"
       width="697.55511"
       height="516.6593"
       id="rect1" /></defs><g
     id="g1"
     transform="translate(-3259.8053,-2758.8439)"><path
       d="m 3625.5554,2989.0412 -0.1953,120.9121 0.3457,69.8593 h -91.7441 v -131.0937 l -126.041,98.5351 -38.5391,-49.2988 80.961,-63.291 h -190.5254 l -0.012,120.9453 c 0,51.1151 41.1409,92.2685 92.2559,92.2735 l 304.5078,0.029 c 51.1151,0 92.2705,-41.1409 92.2754,-92.2559 v -14.0371 z"
       style="fill:#14b8a6;fill-opacity:1;stroke-width:0.965971"
       id="path13-3" /><path
       d="m 3352.1082,2758.8439 c -51.1151,0 -92.2685,41.1408 -92.2735,92.2559 l -0.012,120.9921 v 0 h 190.5137 l -80.957,-63.289 38.5371,-49.2989 126.041,98.5333 v -131.0938 h 91.7441 l 123.1563,152.4121 0.012,-128.209 c 0,-51.115 -41.1428,-92.2685 -92.2578,-92.2734 z"
       style="fill:#14b8a6;fill-opacity:1;stroke-width:0.965971"
       id="path12-5" /><text
       xml:space="preserve"
       id="text1"
       style="font-size:333.333px;writing-mode:lr-tb;direction:ltr;white-space:pre;shape-inside:url(#rect1);display:inline;fill:#14b8a6;fill-opacity:1"
       transform="matrix(1.4244619,0,0,1.4244619,-1734.4556,-1351.3434)"><tspan
         x="3896.418"
         y="3176.2399"
         id="tspan4"><tspan
           style="font-weight:bold;font-family:'DejaVu Sans Mono';-inkscape-font-specification:'DejaVu Sans Mono Bold'"
           id="tspan1">URL</tspan></tspan></text></g></svg>
